<svg xmlns="http://www.w3.org/2000/svg" version="1.1" viewBox="-5.0 -10.0 110.0 135.0">
 <path d="m50 2.5c-26.199 0-47.5 21.301-47.5 47.5s21.301 47.5 47.5 47.5 47.5-21.301 47.5-47.5-21.301-47.5-47.5-47.5zm-36.301 25.102c-0.39844 1.3984-1.1016 2.8984-2.3008 4.1992 0.60156-1.5 1.4023-2.9023 2.3008-4.1992zm-3.6992 37.5c-0.5-1.3984-1-2.8008-1.3008-4.1992 0.10156 0.097656 0.30078 0.19922 0.40234 0.29688 1.0977 0.80078 1.0977 2.5 0.89844 3.9023zm17 20.898c0.19922-0.19922 0.30078-0.39844 0.5-0.60156 0.80078-1.1016 0.80078-1.3008 1.1992-1.8008 1.1016-1.3008 2-0.80078 3.1016-1.8984 0.80078-0.89844 1-2.1016 1.3008-3.6992 0.30078-1.6016-0.10156-1.6992 0.19922-2.6016 0.69922-2.1016 2.5-2.5 2.3984-3.6016-0.10156-1.1016-1.8984-1.8008-3-2.3008-2.3008-1-3.3984-0.39844-5.1016-1.6016-0.30078-0.19922-0.89844-0.69922-1.5-1.6016-0.69922-1-0.39844-1.3008-0.89844-2.1016-0.19922-0.30078-0.60156-0.89844-3.5-2.1992-1.1016-0.5-2-0.89844-2.5-1.1016-2.3008-0.89844-3.5-1.3984-4.6016-1.6016-1.3008-0.19922-2-0.10156-4-0.5-0.59766-0.1875-1.0977-0.28906-1.5977-0.58984s-0.80078-0.60156-1.1016-0.89844c-0.39844-2.3984-0.60156-4.8008-0.60156-7.3008 0-0.69922 0-1.5 0.10156-2.1992 1.3984-0.30078 2.3008-0.89844 2.8008-1.3984 1.1016-1.1016 1-1.8984 2.5-3.6016 0.60156-0.60156 1.3008-1.3984 2.5-2.1016 1.6016-1 2.6016-0.80078 3.1992-1.8008 0.5-0.80078 0.30078-1.5 0.80078-1.6992s0.80078 0.39844 1.6992 0.60156c0.80078 0.19922 2.1016 0.10156 2.8984-0.69922 0.89844-0.89844 1.1992-2.3984 0.60156-3.3984-0.5-0.89844-1.1992-0.60156-2.3984-1.6992-1.1992-1.1992-0.89844-1.8984-2-2.6016-1-0.60156-1.5-0.19922-2.1016-0.69922-0.60156-0.60156-0.69922-1.8984-0.19922-2.6992 0.60156-1 1.6016-0.5 2.6016-1.6016 1.3008-1.3008 1.1016-3.6016 1-4.3984-0.10156-0.5-0.19922-0.89844-0.30078-1.3008 1.1992-1.1016 2.3984-2.1016 3.6992-3 0.60156 0.60156 1.1016 1.1016 1.5 1.6016 0.89844 1.1016 1.3984 1.6992 1.3984 2.6016 0 1.1016-0.80078 1.3984-1.3008 3-0.10156 0.39844-0.39844 1.5-0.19922 2.6992 0.39844 1.8984 2 3.8008 3.3008 3.6016 0.69922-0.10156 1.1992-0.89844 2-2.1992 0.80078-1.3008 0.60156-1.6992 1.1992-2.1992 0.89844-0.80078 1.5-0.30078 3.1992-0.89844 1.5-0.60156 1.3008-1.1016 3.3984-2.1992 1.3008-0.69922 1.6016-0.60156 2.1992-1.1992 0.39844-0.30078 0.89844-0.80078 1.6992-2.6992 1.1016-2.3008 0.80078-2.5 1.6016-3.6016 1.1992-1.8008 2.3008-2 2.1992-2.6992-0.19922-0.80078-2-1-4.6016-1.3984-2.1016-0.30078-3.6992-0.30078-4.1016-0.30078-0.60156 0-1.3008 0-2.1992-0.10156 4.3008-1.5 9-2.3008 13.801-2.3008 12.602 0 24 5.5 31.801 14.199-0.89844 0.5-2 1-3.3008 1.1016-0.80078 0.10156-2 0.19922-3.1016-0.39844-0.30078-0.19922-0.39844-0.30078-1.1016-0.80078-1.3984-1.1016-2.1992-1.6992-2.6016-2-1-0.60156-2.1992-0.30078-4.5 0-1.3984 0.19922-2.1992 0.30078-3.3008 0.69922-3.8984 1.3984-5.8008 4.1992-6.5 5.3984-0.69922 1.1016-0.80078 1.6016-0.69922 2 0.39844 1.3008 3.8984 0.89844 4 1.6992 0 0.30078-0.30078 0.5-0.30078 0.5-0.5 0.39844-0.5 1.3008-1 1.3984-0.39844 0.10156-0.5-0.39844-1-0.5-0.39844 0-0.80078 0.19922-1.8008 1.6016-1.3008 1.8008-1.1016 2.1016-1.6992 2.3984-1 0.60156-1.8984-0.10156-2.3984 0.60156-0.39844 0.5 0.10156 1-0.19922 2.1016-0.10156 0.39844-0.30078 1-0.89844 1.3984-0.39844 0.19922-0.60156 0.10156-1.8008 0.19922-0.80078 0.10156-1.1992 0.10156-1.6016 0.30078-0.80078 0.39844-1 1.3008-1.1016 1.5-0.10156 0.30078-0.19922 0.80078-0.10156 1.3984 0.30078 0.80078 1 1.1992 1.1016 1.3008 0.30078 0.19922 0.5 0.30078 0.69922 0.19922 0.10156 0 0.19922-0.10156 0.30078 0 0.19922 0.10156 0.19922 0.30078 0.30078 0.39844 0.19922 0.30078 0.89844 0.30078 1.1992 0.30078 1.3008-0.10156 2.3008-0.89844 2.3008-1 0.10156-0.10156 0.60156-0.60156 1.3984-1.6992 0.30078-0.30078 0.60156-0.80078 1.1016-1.3984 0.80078-0.89844 1-1.1016 1.3008-1.1992 0.5-0.19922 1-0.19922 1.3984-0.10156 0.39844 0 0.80078 0.10156 1.1992 0.30078 1.1992 0.5 2.3008 1.3008 2.6016 1.6016 0.39844 0.30078 0.60156 0.5 0.89844 0.5 0.60156 0 0.80078-0.60156 1.3008-0.60156 0.30078 0 0.5 0.19922 1.3984 1 0.69922 0.69922 0.80078 1 1.3008 1.1992 0.39844 0.19922 0.80078 0.30078 1.1016 0.30078 0.80078 0.10156 1.1016-0.19922 1.6992-0.19922 0.89844 0 1.3984 0.60156 2.1016 1 1.6992 1 2.8008-0.30078 3.6992 0.60156 0.69922 0.60156 0.60156 1.6992 0.60156 2.1992s-0.10156 1.3984-0.69922 1.8008c-0.19922 0.10156-0.5 0.19922-1.8008 0-1.3008-0.19922-2.3984-0.5-2.8008-0.60156-1.6016-0.39844-1.5-0.5-2-0.5-0.89844-0.10156-1.1016 0.19922-2.6992 0.39844-1.1016 0.19922-1.6992 0.19922-2 0.19922-0.69922-0.19922-0.80078-0.5-2.8984-2.1992-0.80078-0.60156-1-0.80078-1.3984-0.89844-0.80078-0.30078-1.3984-0.19922-2.1016-0.10156-1.5 0.19922-2.6016 0.30078-3.5 0.30078-2.1992 0.10156-2.8008-0.39844-4 0.19922-0.39844 0.19922-0.60156 0.39844-1.1992 0.89844-1.1992 1-1.8984 1.8984-2.3984 2.5-1.8008 2.3008-2.6992 3.3984-2.8984 3.6992-0.39844 0.69922-0.30078 2.6016-0.19922 6.3984 0 1.1992 0.10156 1.5 0.19922 2 0.80078 2 3.1016 2.8008 3.8008 3 0.80078 0.30078 1.5 0.30078 2.5 0.39844 3.3984 0.19922 4.1992-0.69922 6.5-0.19922 1 0.19922 2.6016 0.60156 3.1992 1.8008 0.5 0.89844-0.10156 1.6016 0.30078 3.1016 0.39844 1.1992 0.80078 1 1.3008 2.1992 1 2.3984 0 5.1992-0.19922 5.8008-0.30078 0.89844-0.5 1.1992-0.5 1.8008 0.10156 1.1992 0.80078 1.6992 1.3008 2.8008 0.60156 1.3984 0 2 0.19922 3.5 0.30078 1.8984 1.6992 4 3.3984 4.6992-4.8008 1.8008-9.8984 2.8008-15.301 2.8008-8.1953-0.007812-16.094-2.5078-22.695-6.707zm42.301 2.1016c0.39844-0.5 0.89844-1.1016 1.3984-1.8008 0.80078-1 1.5-1.8984 2-3.3984s0.19922-2 0.80078-2.8008c0.89844-1.3008 2.1016-0.89844 2.8984-2.1992 0.30078-0.5 0.39844-1.1992 0.60156-2.5 0.19922-1.5 0.10156-2.1992 0.19922-2.8984 0-0.5 0.19922-1.6992 3.3008-5.6016 2.1016-2.6992 3.5-4.1016 3.1992-4.6992-0.30078-0.39844-1.1016 0.10156-2.5-0.39844-0.80078-0.30078-1.3984-0.60156-1.6992-0.89844-1.3984-1-2.1016-2.3984-2.5-3.5-2-4.5-3.3984-5.5-2.8984-6.8984 0.10156-0.10156 0.30078-0.69922 0.69922-0.69922 0.5-0.10156 1 0.80078 1.6016 1.6992 1 1.6992-1.1016-2.1016 3.1016 4.5 1.1016 1.8008 1 2.3984 1.6992 2.8008 1.1016 0.60156 2.6016-0.19922 3.6016-0.80078 0.60156-0.30078 3.1992-1.8008 3.1016-3.6016-0.10156-0.69922-0.60156-1.1992-0.60156-1.3008-0.5-0.5-0.89844-0.5-1.8008-0.89844-0.89844-0.39844-1.8008-0.80078-2.3008-1.6016-0.60156-1-0.60156-2.5-0.10156-2.8008 0.60156-0.30078 1.1016 1.3008 3 2.3984 1.1016 0.60156 2.8984 0.80078 6.3984 1.1992h0.39844c-0.69922 16.098-10.098 29.898-23.598 36.699z"/>
 <path d="m49.301 33.301c0.89844 0.19922 1 0.10156 1.3984 0.30078 0.39844 0.19922 0.5 0.39844 1.1016 0.69922 0.39844 0.19922 0.60156 0.30078 0.80078 0.30078 0.5-0.10156 0.69922-1 0.60156-1.6992-0.10156-0.5-0.39844-0.89844-1-1.8984-0.39844-0.60156-0.39844-0.5-0.60156-0.89844-0.69922-1.1016-0.69922-1.6016-1-1.6992-0.19922 0-0.30078 0.19922-0.80078 0.69922-1 1.1992-1.1992 1.1016-1.6992 1.8984-0.39844 0.60156-0.69922 1.1992-0.5 1.6016 0.097657 0.39453 0.59766 0.49609 1.6992 0.69531z"/>
<text x="0.0" y="117.5" font-size="5.0" font-weight="bold" font-family="Arbeit Regular, Helvetica, Arial-Unicode, Arial, Sans-serif" fill="#000000">Created by Studio Danro</text><text x="0.0" y="122.5" font-size="5.0" font-weight="bold" font-family="Arbeit Regular, Helvetica, Arial-Unicode, Arial, Sans-serif" fill="#000000">from Noun Project</text></svg>